<svg xmlns="http://www.w3.org/2000/svg" viewBox="0 0 512 512">
  <!-- Bitcoin symbol shape -->
  <path d="M473.5,256c0,120.12-97.38,217.5-217.5,217.5C136,473.5,38.5,376.12,38.5,256C38.5,136,136,38.5,256,38.5
    C376.12,38.5,473.5,136,473.5,256z" fill="#F7931A"/>
  <path d="M360.1,241.1c4.4-29.5-18-45.5-48.6-56.1l9.9-39.8l-24.2-6l-9.7,38.9c-6.4-1.6-12.9-3.1-19.3-4.6l9.7-39.1
    l-24.2-6l-9.9,39.8c-5.3-1.2-10.5-2.4-15.5-3.7l0,0l-33.4-8.3l-6.5,25.9c0,0,18,4.1,17.6,4.4c9.8,2.4,11.5,8.9,11.2,14
    l-11.2,45.1c0.7,0.2,1.5,0.4,2.5,0.8c-0.8-0.2-1.7-0.4-2.6-0.6l-15.8,63.1c-1.2,3-4.3,7.4-11.2,5.7c0.2,0.3-17.6-4.4-17.6-4.4
    l-12,27.6l31.5,7.9c5.8,1.5,11.6,3,17.2,4.4l-10,40.2l24.2,6l9.9-39.9c6.6,1.8,13,3.5,19.3,5l-9.9,39.7l24.2,6l10-40.1
    c41.2,7.8,72.2,4.7,85.2-32.6c10.4-30.1-0.5-47.5-22-58.7C347.5,276.3,356.9,263.4,360.1,241.1z M312.9,301.7
    c-7.4,30.1-57.7,13.8-74,9.7l13.2-52.9C268.4,262.6,320.7,270.4,312.9,301.7z M320.3,240.3c-6.8,27.2-48.4,13.4-61.9,10
    l12-48.1C283.9,205.7,327.4,212,320.3,240.3z" fill="#FFFFFF"/>
</svg>
